<svg width="9" height="9" viewBox="0 0 9 9" fill="none" xmlns="http://www.w3.org/2000/svg">
<path d="M0.194283 7.49091C-0.0647652 7.74996 -0.0647652 8.16996 0.194283 8.42901C0.45333 8.68806 0.87333 8.68806 1.13238 8.42901L0.194283 7.49091ZM8.62333 0.663294C8.62333 0.296946 8.32635 -3.88486e-05 7.96 -3.90488e-05L1.99 -3.90699e-05C1.62365 -3.90699e-05 1.32666 0.296945 1.32666 0.663294C1.32666 1.02964 1.62365 1.32663 1.99 1.32663L7.29666 1.32663L7.29666 6.63329C7.29666 6.99964 7.59365 7.29663 7.96 7.29663C8.32635 7.29663 8.62333 6.99964 8.62333 6.63329L8.62333 0.663294ZM1.13238 8.42901L8.42904 1.13234L7.49095 0.194247L0.194283 7.49091L1.13238 8.42901Z" fill="#CBACF9"/>
</svg>
