<svg width="133" height="26" viewBox="0 0 133 26" fill="none" xmlns="http://www.w3.org/2000/svg">
<path fill-rule="evenodd" clip-rule="evenodd" d="M57.1226 19.8154L57.4984 19.3064C57.749 19.1791 57.749 18.9246 57.749 18.67C57.749 18.4155 57.749 18.161 57.3732 17.9065C57.2479 17.652 56.9974 17.5247 56.6216 17.3974C55.3937 17.124 54.1811 16.7841 52.9888 16.3793L51.6109 15.4885C51.1098 15.234 50.8593 14.8522 50.6088 14.4704L50.233 12.9433C50.233 12.307 50.3582 11.798 50.6088 11.4162C50.8593 10.9071 51.2351 10.3981 51.7362 10.1436C52.112 9.76178 52.7383 9.37999 53.2394 9.25273C54.4171 8.84548 55.6944 8.84548 56.8721 9.25273C57.3732 9.25273 57.8742 9.50725 58.3753 9.88904L59.3774 10.9071C59.7532 11.2889 59.8785 11.798 60.0038 12.1797L57.3732 12.9433C57.3732 12.5615 56.9974 12.1797 56.6216 11.9252C56.1879 11.5948 55.6604 11.4162 55.1184 11.4162C54.6037 11.3558 54.0827 11.444 53.6152 11.6707L53.1141 12.1797L52.8636 12.816L53.1141 13.4523L53.7404 13.9614L54.492 14.2159L55.2436 14.4704L57.749 15.234L59.3774 16.1248C59.7532 16.5066 60.0038 16.8884 60.129 17.3974C60.3796 17.652 60.3796 18.161 60.3796 18.67C60.3796 19.3064 60.3796 19.9427 60.0038 20.3244C59.7532 20.8335 59.3774 21.3425 58.8764 21.7243C58.3753 22.1061 57.749 22.4879 57.1226 22.6151C56.4963 22.8697 55.7447 22.9969 54.9931 22.9969C53.7404 22.9969 52.7383 22.7424 51.7362 22.1061C50.8593 21.4698 50.233 20.8335 49.8572 19.8154L52.3625 18.7973C52.613 19.4336 52.9888 19.8154 53.4899 20.0699C53.8657 20.3244 54.492 20.4517 55.1184 20.4517C55.87 20.4517 56.371 20.1972 56.9974 19.8154H57.1226ZM69.6493 22.6151L67.2692 23.1242C66.5176 23.1242 65.8913 23.1242 65.265 22.7424C64.6386 22.4879 64.1376 21.9788 63.7618 21.3425C63.386 20.7062 63.2607 19.6881 63.2607 18.4155V12.0525H60.8806V9.12547H61.507C62.2586 9.12547 63.0102 8.99821 63.386 8.23464C63.6365 7.98012 63.6365 7.59834 63.6365 6.70751V5.68942H66.1418V9.12547H68.8977V12.1797H66.0166V19.9427L66.6429 20.579L67.645 20.7062H69.1482L69.6493 22.6151ZM78.4179 11.6707L78.0421 11.4162H77.4158L77.04 11.2889C75.9906 11.267 74.9683 11.6282 74.1589 12.307L73.4073 13.3251C73.1567 13.7069 73.1567 14.2159 73.1567 14.5977V23.1242H70.2756V9.12547H72.5304L73.0315 10.7799C73.4073 10.1436 73.9083 9.76178 74.5347 9.50725C75.2636 9.09743 76.0816 8.87873 76.9147 8.87095L79.0443 9.12547L78.2927 11.6707H78.4179ZM85.5581 22.9969C84.1767 22.9931 82.8261 22.5823 81.6699 21.8143C80.5137 21.0463 79.6017 19.9541 79.0443 18.67C78.6685 17.7792 78.4179 16.8884 78.4179 15.8703C78.4193 14.4991 78.8101 13.1575 79.5433 12.0062C80.2766 10.855 81.3211 9.94316 82.5517 9.37999C84.1997 8.7075 86.0397 8.7075 87.6876 9.37999C88.4392 9.63451 89.1908 10.1436 89.6919 10.7799C90.3182 11.4162 90.8193 12.307 91.0698 13.3251C91.4456 14.4704 91.5709 15.6158 91.5709 17.1429H81.4243C81.4243 17.652 81.6749 18.0337 82.0507 18.4155C82.5919 19.2716 83.379 19.938 84.3055 20.3244L85.9339 20.579C87.2354 20.5807 88.489 20.0804 89.4414 19.1791L91.1951 20.8335C90.4664 21.5041 89.6152 22.023 88.6898 22.3606C87.8129 22.7424 86.6855 22.9969 85.5581 22.9969ZM85.057 11.2889C84.6813 11.2889 84.1802 11.2889 83.8044 11.5434C83.0025 11.9117 82.3422 12.5378 81.9254 13.3251C81.6749 13.7069 81.4243 14.2159 81.4243 14.5977H88.5645C88.5645 14.2159 88.5645 13.8341 88.314 13.3251C88.0294 12.67 87.5504 12.1215 86.944 11.7565C86.3376 11.3914 85.6341 11.2279 84.9318 11.2889H85.057ZM106.352 9.12547V22.9969H104.098L103.596 21.088C103.221 21.7243 102.594 22.2334 101.843 22.4879C101.091 22.8697 100.34 22.9969 99.588 22.9969C98.6799 23.0151 97.7777 22.8437 96.9374 22.4935C96.0971 22.1433 95.3365 21.6216 94.7026 20.9607C93.3868 19.6037 92.6492 17.7752 92.6492 15.8703C92.6492 13.9654 93.3868 12.137 94.7026 10.7799C95.3451 10.1308 96.1073 9.6168 96.9456 9.2674C97.7839 8.91801 98.6819 8.74004 99.588 8.74369C100.34 8.74369 101.091 8.99821 101.717 9.25273C102.469 9.50725 103.095 10.0163 103.596 10.5253L104.098 9.12547H106.478H106.352ZM99.588 20.579L101.091 20.1972C101.592 19.9427 102.093 19.5609 102.344 19.1791C103.159 18.277 103.606 17.0946 103.596 15.8703C103.583 14.6505 103.138 13.4763 102.344 12.5615C102.093 12.1797 101.592 11.798 101.091 11.5434C100.605 11.2969 100.069 11.1686 99.5253 11.1686C98.9819 11.1686 98.4458 11.2969 97.9595 11.5434L96.7068 12.5615C95.8921 13.4636 95.4444 14.646 95.4542 15.8703C95.468 17.0901 95.9125 18.2643 96.7068 19.1791L97.9595 20.1972C98.4606 20.4517 98.9616 20.579 99.588 20.579ZM111.238 22.9969H108.482V8.99821H110.611L111.238 10.2708C111.488 9.88904 111.989 9.50725 112.49 9.25273C112.866 8.99821 113.493 8.74369 114.119 8.74369C115.221 8.76022 116.284 9.16505 117.125 9.88904L118.002 10.9071C118.253 10.3981 118.754 9.88904 119.38 9.37999C120.011 8.95489 120.753 8.73311 121.51 8.74369L123.138 8.99821C123.749 9.1986 124.311 9.52933 124.787 9.96828C125.262 10.4072 125.639 10.9443 125.894 11.5434C126.144 12.307 126.27 13.3251 126.27 14.4704V22.9969H123.764V14.4704C123.764 13.1978 123.389 12.4343 122.888 11.9252C122.512 11.5434 121.76 11.2889 121.009 11.2889C120.382 11.2889 119.756 11.5434 119.38 12.0525C119.004 12.5615 118.754 13.3251 118.754 14.4704V22.9969H116.123V14.4704C116.123 13.1978 115.873 12.4343 115.372 11.9252C114.87 11.5434 114.244 11.2889 113.493 11.2889C112.866 11.2889 112.365 11.5434 111.989 11.9252C111.488 12.4343 111.238 13.0706 111.238 13.9614V22.8697V22.9969Z" fill="white"/>
<path fill-rule="evenodd" clip-rule="evenodd" d="M33.7739 9.16686L46.8396 8.26223C47.719 8.26223 48.3471 9.16686 47.8446 9.81303L38.6735 22.7364C38.4223 22.8656 38.171 23.1241 37.7941 23.1241H17.1906C17.0344 23.1046 16.8848 23.0477 16.7539 22.9579C16.623 22.8681 16.5144 22.748 16.4369 22.6071L7.26579 9.81303C6.76327 9.16686 7.26579 8.13299 8.14521 8.26223L21.2108 9.16686L26.7386 2.96366C27.1155 2.44672 27.9949 2.44672 28.2462 2.96366L33.7739 9.03763V9.16686ZM36.5378 21.0563L27.9949 17.8255V21.0563H36.5378ZM26.9899 21.0563V17.8255L18.447 21.0563H27.1155H26.9899ZM25.9848 17.1793L17.3163 20.4102L11.0347 11.3638L26.1104 17.0501L25.9848 17.1793ZM29 17.1793L37.7941 20.4102L44.0757 11.3638L29 17.0501V17.1793ZM26.9899 16.4039V5.67756L19.9545 13.69L26.9899 16.2747V16.4039ZM27.9949 16.4039V5.67756L35.1559 13.69L27.9949 16.2747V16.4039ZM17.8188 12.9146L19.452 11.1054L11.4116 10.5884L17.8188 12.9146ZM37.166 12.9146L35.5328 11.1054L43.4475 10.5884L37.166 12.9146Z" fill="#006CFF"/>
</svg>
