<svg width="116" height="24" viewBox="0 0 116 24" fill="none" xmlns="http://www.w3.org/2000/svg">
<g clip-path="url(#clip0_2001_8084)">
<path fill-rule="evenodd" clip-rule="evenodd" d="M48.8213 14.5466C49.0656 13.9106 49.1883 13.1727 49.1883 12.3339C49.1883 11.4947 49.0637 10.757 48.8141 10.1208C48.5649 9.48433 48.2229 8.94921 47.789 8.51561C47.3549 8.08193 46.847 7.75686 46.2652 7.53994C45.6832 7.32282 45.0644 7.21426 44.4089 7.21426C43.7715 7.21426 43.1641 7.32282 42.5872 7.53994C42.0097 7.75686 41.5016 8.08193 41.0632 8.51561C40.6245 8.94921 40.2756 9.48433 40.0172 10.1208C39.7586 10.757 39.6292 11.4947 39.6292 12.3339C39.6292 13.1727 39.7541 13.9106 40.0034 14.5466C40.2529 15.1831 40.5942 15.7158 41.0286 16.1445C41.4624 16.5738 41.9706 16.8965 42.5525 17.1132C43.1344 17.3303 43.753 17.4387 44.4089 17.4387C45.0828 17.4387 45.7134 17.3303 46.2997 17.1132C46.8861 16.8965 47.3919 16.5738 47.8167 16.1445C48.2413 15.7158 48.5763 15.1831 48.8213 14.5466ZM42.0328 13.6346C41.9173 13.2481 41.8597 12.8144 41.8597 12.3339C41.8597 11.8625 41.9173 11.4312 42.0328 11.0397C42.1482 10.6486 42.3146 10.314 42.5318 10.036C42.7484 9.75777 43.0141 9.54089 43.3284 9.38521C43.6421 9.22985 44.0023 9.15209 44.4089 9.15209C44.8058 9.15209 45.1638 9.22745 45.4827 9.37833C45.8009 9.52881 46.069 9.74353 46.2858 10.0215C46.5027 10.3 46.6693 10.6343 46.7848 11.0254C46.9002 11.4168 46.958 11.8528 46.958 12.3339C46.958 12.8144 46.9002 13.2481 46.7848 13.6346C46.6693 14.0214 46.5027 14.3536 46.2858 14.6316C46.069 14.91 45.8009 15.1242 45.4827 15.2749C45.1638 15.4262 44.8058 15.5017 44.4089 15.5017C44.0023 15.5017 43.6421 15.4262 43.3284 15.2749C43.0141 15.1242 42.7484 14.91 42.5318 14.6316C42.3146 14.3536 42.1482 14.0214 42.0328 13.6346Z" fill="white"/>
<path d="M54.6224 15.5578C54.9272 15.5578 55.1787 15.5321 55.3774 15.4799C55.5759 15.4283 55.7353 15.3577 55.8552 15.2675C55.9751 15.1783 56.0584 15.0723 56.1048 14.9498C56.151 14.8274 56.1741 14.6905 56.1741 14.5396C56.1741 14.2193 56.0261 13.9526 55.7306 13.7407C55.435 13.5284 54.9272 13.3 54.2069 13.0544C53.8927 12.9417 53.5786 12.8118 53.2647 12.6659C52.9507 12.5199 52.669 12.336 52.4197 12.1143C52.1705 11.8929 51.9672 11.6242 51.8102 11.308C51.6531 10.9924 51.5747 10.6084 51.5747 10.1558C51.5747 9.70313 51.6578 9.29545 51.824 8.93257C51.9904 8.56953 52.2258 8.26105 52.5307 8.00616C52.8354 7.75148 53.2046 7.55631 53.6387 7.41928C54.0729 7.28284 54.5622 7.21402 55.1073 7.21402C55.7537 7.21402 56.3126 7.2852 56.7837 7.42639C57.2544 7.56777 57.6424 7.72359 57.9472 7.89325L57.324 9.63257C57.0559 9.49121 56.7579 9.36617 56.4304 9.25761C56.1024 9.14945 55.7076 9.09489 55.246 9.09489C54.7286 9.09489 54.3568 9.16849 54.1306 9.31441C53.9043 9.46049 53.791 9.68457 53.791 9.98593C53.791 10.1653 53.8328 10.3163 53.9159 10.4386C53.9989 10.5611 54.1168 10.6719 54.269 10.771C54.4215 10.8698 54.597 10.9596 54.7958 11.0395C54.9939 11.1198 55.2135 11.202 55.4538 11.2868C55.9523 11.4757 56.3864 11.6618 56.756 11.8456C57.1253 12.0295 57.4325 12.2441 57.6773 12.4891C57.9218 12.7341 58.1042 13.0218 58.2246 13.3519C58.3443 13.682 58.4045 14.0825 58.4045 14.5535C58.4045 15.468 58.0903 16.1775 57.4623 16.6817C56.8342 17.1863 55.8876 17.4387 54.6224 17.4387C54.1976 17.4387 53.8142 17.4126 53.4725 17.3607C53.1308 17.3086 52.8284 17.2451 52.5652 17.1698C52.3021 17.0944 52.0756 17.0143 51.8862 16.9295C51.6969 16.8445 51.5377 16.7646 51.4083 16.6888L52.0181 14.9355C52.304 15.0961 52.6574 15.2396 53.078 15.3666C53.4979 15.4941 54.013 15.5578 54.6224 15.5578Z" fill="white"/>
<path d="M67.9259 7.44101V9.32192H65.0304V17.2407H62.8694V9.32192H59.9737V7.44101H67.9259Z" fill="white"/>
<path d="M70.3263 17.241H72.4875V7.44104H70.3263V17.241Z" fill="white"/>
<path d="M82.1614 17.2407C81.5427 16.119 80.8736 15.0114 80.1531 13.9175C79.4318 12.8238 78.6656 11.7917 77.8531 10.8206V17.2407H75.7196V7.44101H77.4789C77.7835 7.75185 78.1207 8.13368 78.4903 8.58632C78.8597 9.03896 79.2354 9.52224 79.6196 10.0359C80.0024 10.5497 80.3835 11.0823 80.7623 11.6337C81.1411 12.1851 81.4962 12.7153 81.8292 13.2245V7.44101H83.9764V17.2407H82.1614Z" fill="white"/>
<path d="M91.8904 9.138C90.8843 9.138 90.1567 9.42312 89.7085 9.99344C89.2603 10.5639 89.037 11.3438 89.037 12.334C89.037 12.8143 89.0922 13.2507 89.2027 13.6418C89.3139 14.0328 89.4805 14.3698 89.7014 14.6527C89.9232 14.9357 90.2001 15.155 90.5331 15.3106C90.8654 15.466 91.2528 15.5438 91.6963 15.5438C91.9362 15.5438 92.1421 15.539 92.3134 15.5297C92.4838 15.5204 92.6338 15.5016 92.7632 15.4731V12.0653H94.9246V16.9156C94.6657 17.0194 94.2507 17.13 93.6778 17.2476C93.1049 17.3653 92.3986 17.4246 91.5582 17.4246C90.8377 17.4246 90.1843 17.3113 89.598 17.0853C89.0109 16.8587 88.5098 16.529 88.0948 16.0952C87.6797 15.6618 87.3585 15.1289 87.132 14.4973C86.9056 13.8661 86.7927 13.1448 86.7927 12.334C86.7927 11.5136 86.9174 10.7878 87.1668 10.1559C87.4161 9.52456 87.757 8.98912 88.1918 8.55088C88.6258 8.11256 89.1356 7.78032 89.7227 7.55412C90.309 7.32771 90.9348 7.2142 91.5992 7.2142C92.0522 7.2142 92.4609 7.24524 92.8255 7.30635C93.1901 7.36784 93.5042 7.43843 93.7677 7.51871C94.0305 7.5986 94.2483 7.68106 94.4187 7.76609C94.59 7.85092 94.7115 7.91716 94.7857 7.96423L94.1623 9.7316C93.8672 9.57144 93.527 9.43264 93.1443 9.31456C92.7608 9.19672 92.3434 9.138 91.8904 9.138Z" fill="white"/>
<path d="M97.9484 17.2407V7.44101H104.432V9.29344H100.11V11.2164H103.947V13.0267H100.11V15.3883H104.751V17.2407H97.9484Z" fill="white"/>
<path fill-rule="evenodd" clip-rule="evenodd" d="M113.482 8.11242C112.716 7.58904 111.612 7.32764 110.171 7.32764C109.774 7.32764 109.324 7.34642 108.821 7.38439C108.317 7.42176 107.83 7.4882 107.359 7.58192V17.2407H109.52V13.6626H110.587C110.772 13.8892 110.958 14.1413 111.143 14.4197C111.329 14.6977 111.517 14.9919 111.707 15.3032C111.897 15.6144 112.082 15.9351 112.263 16.265C112.443 16.5951 112.622 16.9201 112.798 17.2407H115.214C115.048 16.8826 114.868 16.5173 114.674 16.1446C114.48 15.7724 114.279 15.4143 114.071 15.0703C113.863 14.7262 113.653 14.3962 113.44 14.0802C113.228 13.7644 113.025 13.484 112.831 13.2387C113.414 12.9939 113.859 12.6565 114.168 12.2278C114.478 11.7989 114.632 11.2399 114.632 10.5519C114.632 9.44874 114.248 8.6357 113.482 8.11242ZM109.874 9.22258C109.998 9.2133 110.139 9.2085 110.296 9.2085C110.989 9.2085 111.513 9.30994 111.868 9.51226C112.224 9.71554 112.402 10.0568 112.402 10.5377C112.402 11.0376 112.227 11.3914 111.876 11.5984C111.524 11.806 110.943 11.9092 110.13 11.9092H109.52V9.25082C109.631 9.24178 109.749 9.23226 109.874 9.22258Z" fill="white"/>
<path d="M34.5679 7.52029H36.7421V17.2855H34.5679V13.1427H30.9166V17.2855H28.7423V7.52029H30.9166V11.2542H34.5679V7.52029Z" fill="white"/>
<path fill-rule="evenodd" clip-rule="evenodd" d="M13.9049 0.685699V7.66922L19.4701 10.9689V3.56156L13.9049 0.685699ZM-0.155019 0.686043V11.6448H17.9447L12.4378 8.57626L5.26404 8.57274V3.63528L-0.155019 0.686043ZM13.9049 21.0635V16.1687L6.67578 16.1635C6.68253 16.1962 1.07742 13.046 1.07742 13.046L19.47 13.1341V24.0927L13.9049 21.0635ZM-0.15502 13.9023L-0.155212 21.0635L5.26404 23.9392V17.1239L-0.15502 13.9023Z" fill="#6741C9"/>
</g>
<defs>
<clipPath id="clip0_2001_8084">
<rect width="116" height="24" fill="white"/>
</clipPath>
</defs>
</svg>
