<svg width="142" height="26" viewBox="0 0 142 26" fill="none" xmlns="http://www.w3.org/2000/svg">
<path d="M44.1595 20.2347C46.2595 20.2347 47.3192 19.145 47.7811 18.4028H47.9891C48.0805 19.191 48.6347 19.9331 49.7187 19.9331H51.7711V17.6137H51.2412C50.8718 17.6137 50.6871 17.4052 50.6871 17.0811V7.78181H47.9648V9.26609H47.7577C47.2279 8.52395 46.1205 7.48025 44.0905 7.48025C40.8617 7.48025 38.4622 10.1698 38.4622 13.857C38.4622 17.5442 40.9074 20.2347 44.1595 20.2347ZM44.6437 17.5912C42.7293 17.5912 41.2311 16.1764 41.2311 13.8805C41.2311 11.6306 42.6837 10.1012 44.6213 10.1012C46.4666 10.1012 48.0115 11.469 48.0115 13.8805C48.0115 15.9444 46.696 17.5912 44.6437 17.5912ZM53.3792 24.6454H56.1004V18.4028H56.3075C56.815 19.145 57.8991 20.2347 60.0448 20.2347C63.2736 20.2347 65.6264 17.4982 65.6264 13.857C65.6264 10.1933 63.1122 7.48025 59.8601 7.48025C57.7843 7.48025 56.7684 8.61598 56.2842 9.24259H56.0771V7.78181H53.3782L53.3792 24.6454ZM59.4683 17.6607C57.5996 17.6607 56.0538 16.2694 56.0538 13.857C56.0538 11.7931 57.3692 10.0542 59.4216 10.0542C61.3369 10.0542 62.8351 11.562 62.8351 13.857C62.8351 16.1069 61.3826 17.6607 59.4683 17.6607ZM67.0312 24.6454H69.7535V18.4028H69.9606C70.4681 19.145 71.5521 20.2347 73.6969 20.2347C76.9256 20.2347 79.0538 17.4982 79.0538 13.857C79.0538 10.1933 76.7642 7.48025 73.5121 7.48025C71.4364 7.48025 70.4214 8.61598 69.9372 9.24259H69.7292V7.78181H67.0312V24.6454ZM73.1203 17.6607C71.2517 17.6607 69.7068 16.2694 69.7068 13.857C69.7068 11.7931 71.0213 10.0542 73.0737 10.0542C74.9889 10.0542 76.4881 11.562 76.4881 13.857C76.4881 16.1069 75.0346 17.6607 73.1203 17.6607ZM82.6531 20.2151H86.5041L88.6955 10.6838H88.8345L91.0249 20.2151H94.8546L97.92 8.06378H95.1773L92.9859 17.6186H92.7779L90.5874 8.0628H86.9659L84.7511 17.6186H84.544L82.376 8.0628H79.469L82.6531 20.2151ZM99.2996 20.2151H102.022V14.2095C102.022 11.9135 103.082 10.4987 105.066 10.4987H106.265V7.76223H105.365C103.82 7.76223 102.643 8.82942 102.182 9.84962H101.998V8.06378H99.2996V20.2151ZM119.772 20.2151H121.894V17.7802H119.795C118.965 17.7802 118.619 17.4091 118.619 16.5514V10.4753H122.032V8.06378H118.619V4.65463H116.036V8.06378H113.775V10.4753H115.874V16.5749C115.874 19.1489 117.419 20.2151 119.772 20.2151ZM129.196 20.2347C131.71 20.2347 133.925 18.9815 134.708 16.4555L132.217 15.8514C131.779 17.1966 130.511 17.8927 129.173 17.8927C127.189 17.8927 125.875 16.5935 125.851 14.5531H135.009V13.7875C135.009 10.1698 132.772 7.48025 129.081 7.48025C125.828 7.48025 123.038 10.0542 123.038 13.8805C123.038 17.5912 125.505 20.2347 129.196 20.2347ZM125.875 12.5587C126.036 11.0979 127.35 9.86822 129.081 9.86822C130.742 9.86822 132.103 10.9119 132.241 12.5587H125.875Z" fill="#EDEDF0"/>
<path fill-rule="evenodd" clip-rule="evenodd" d="M112.565 20.215H109.842V10.4751H107.721V8.06366H112.565V20.215Z" fill="#EDEDF0"/>
<path d="M111.002 6.37659C111.994 6.37659 112.732 5.63445 112.732 4.66026C112.732 3.71056 111.994 2.96744 111.002 2.96744C110.01 2.96744 109.272 3.70958 109.272 4.66124C109.272 5.63445 110.01 6.37659 111.002 6.37659Z" fill="#EDEDF0"/>
<path d="M30.4373 17.2358V22.5992H17.1265C13.2483 22.5992 9.86201 20.4422 8.05075 17.2358C7.24928 15.8146 6.77825 14.2288 6.6731 12.5979L6.6731 11.1488C6.72039 10.4045 6.84453 9.66723 7.04352 8.94885C8.28797 4.44509 12.3315 1.14755 17.1256 1.14755C21.9225 1.14755 25.9651 4.44705 27.2086 8.94787H21.5171C20.5838 7.48023 18.966 6.50996 17.1265 6.50996C15.2871 6.50996 13.6702 7.48023 12.7359 8.94787C12.4472 9.39977 12.2276 9.89288 12.0845 10.4106C11.9535 10.887 11.8874 11.3791 11.8881 11.8734C11.886 12.6015 12.0305 13.3225 12.3129 13.9927C12.5953 14.663 13.0098 15.2686 13.5312 15.773C14.496 16.7117 15.7851 17.2361 17.1265 17.2358H30.4373Z" fill="#FD366E"/>
<path d="M30.4373 10.4096V15.773H20.7208C21.2424 15.2687 21.6571 14.6631 21.9397 13.9928C22.2222 13.3225 22.3669 12.6015 22.3649 11.8733C22.3653 11.379 22.2989 10.8869 22.1675 10.4106L30.4373 10.4096Z" fill="#FD366E"/>
</svg>
