<svg width="137" height="27" viewBox="0 0 137 27" fill="none" xmlns="http://www.w3.org/2000/svg">
<path d="M47.971 8.48957C48.6565 8.49094 49.3326 8.65246 49.9472 8.96168C50.5618 9.27091 51.0985 9.71961 51.5161 10.2732C51.5309 10.2933 51.5496 10.3101 51.571 10.3225C51.5924 10.3349 51.6161 10.3427 51.6406 10.3455C51.6651 10.3482 51.6899 10.3458 51.7134 10.3385C51.737 10.3311 51.7588 10.3188 51.7775 10.3025L53.2703 9.09123C53.2894 9.0757 53.3053 9.05649 53.3171 9.03469C53.3289 9.01289 53.3363 8.98894 53.339 8.9642C53.3417 8.93947 53.3395 8.91444 53.3327 8.89055C53.3258 8.86667 53.3144 8.84439 53.2991 8.82501C52.6637 7.98538 51.8474 7.30557 50.9132 6.83799C49.979 6.37042 48.9518 6.12758 47.9109 6.12821C44.0128 6.12821 40.8521 9.54913 40.8521 13.7554C40.8521 17.9617 44.0233 21.3826 47.9109 21.3826C48.9517 21.3861 49.9792 21.1449 50.9134 20.6775C51.8476 20.2102 52.6631 19.5295 53.2965 18.6884C53.3123 18.6692 53.3242 18.6468 53.3312 18.6228C53.3383 18.5987 53.3404 18.5734 53.3374 18.5484C53.3345 18.5235 53.3266 18.4994 53.3141 18.4777C53.3017 18.456 53.285 18.4371 53.2651 18.4222L51.7749 17.2242C51.7559 17.2086 51.734 17.197 51.7105 17.19C51.6871 17.1831 51.6625 17.1809 51.6382 17.1836C51.6139 17.1863 51.5904 17.1939 51.569 17.2059C51.5476 17.2179 51.5287 17.2341 51.5135 17.2535C51.0938 17.8036 50.5568 18.2492 49.9431 18.5569C49.3294 18.8645 48.655 19.026 47.971 19.0292C45.3069 19.0292 43.2233 16.7131 43.2233 13.7607C43.2233 10.8083 45.3069 8.48957 47.971 8.48957Z" fill="white"/>
<path d="M55.2229 5.69394H57.0948C57.1441 5.69394 57.1913 5.71385 57.2261 5.7493C57.2609 5.78475 57.2805 5.83283 57.2805 5.88296V20.9989C57.2805 21.0483 57.2612 21.0957 57.2269 21.1307C57.1925 21.1656 57.146 21.1853 57.0974 21.1853H55.2256C55.1763 21.1853 55.1291 21.1653 55.0943 21.1299C55.0595 21.0944 55.0399 21.0464 55.0399 20.9962V5.88296C55.0396 5.85826 55.0441 5.83374 55.0531 5.81082C55.0621 5.78791 55.0756 5.76705 55.0926 5.74946C55.1096 5.73187 55.1299 5.71791 55.1523 5.70837C55.1747 5.69884 55.1987 5.69394 55.2229 5.69394Z" fill="white"/>
<path d="M63.6596 10.9224C61.1786 10.9224 58.6688 12.7114 58.6688 16.1323C58.6688 19.138 60.8152 21.4062 63.6596 21.4062C66.504 21.4062 68.6714 19.138 68.6714 16.1323C68.6714 13.1267 66.5171 10.9224 63.6596 10.9224ZM66.4125 16.1323C66.4125 17.8681 65.2282 19.1779 63.6596 19.1779C62.091 19.1779 60.9302 17.8681 60.9302 16.1323C60.9302 14.3966 62.104 13.1507 63.6596 13.1507C65.2152 13.1507 66.4125 14.4312 66.4125 16.1323Z" fill="white"/>
<path d="M78.7601 11.1409H76.8882C76.864 11.1405 76.8399 11.1451 76.8174 11.1543C76.7949 11.1635 76.7744 11.1771 76.7571 11.1945C76.7398 11.2118 76.7261 11.2325 76.7168 11.2553C76.7074 11.2781 76.7026 11.3025 76.7026 11.3272V16.3854C76.7026 18.3607 75.364 19.0609 74.2163 19.0609C73.202 19.0609 72.1797 18.2809 72.1797 16.5371V11.3272C72.1797 11.3025 72.1749 11.2781 72.1656 11.2553C72.1562 11.2325 72.1425 11.2118 72.1252 11.1945C72.1079 11.1771 72.0874 11.1635 72.0649 11.1543C72.0424 11.1451 72.0184 11.1405 71.9941 11.1409H70.1222C70.0737 11.1409 70.0271 11.1605 69.9928 11.1954C69.9585 11.2304 69.9392 11.2778 69.9392 11.3272V16.7847C69.9392 19.7797 71.2699 21.4276 73.6882 21.4276C74.5666 21.4276 75.9889 20.9138 76.5222 19.7797L76.7026 19.817V20.999C76.7026 21.0491 76.7221 21.0972 76.757 21.1326C76.7918 21.1681 76.839 21.188 76.8882 21.188H78.7601C78.8093 21.188 78.8565 21.1681 78.8914 21.1326C78.9262 21.0972 78.9457 21.0491 78.9457 20.999V11.3272C78.9457 11.3025 78.9409 11.2781 78.9316 11.2553C78.9222 11.2325 78.9085 11.2118 78.8912 11.1945C78.8739 11.1771 78.8535 11.1635 78.8309 11.1543C78.8084 11.1451 78.7844 11.1405 78.7601 11.1409Z" fill="white"/>
<path d="M90.2557 5.69394H88.3812C88.3569 5.69394 88.3329 5.69884 88.3105 5.70837C88.2881 5.71791 88.2678 5.73187 88.2508 5.74946C88.2338 5.76705 88.2204 5.78791 88.2113 5.81082C88.2023 5.83374 88.1978 5.85826 88.1981 5.88296V12.6396L88.0831 12.4533C87.5132 11.5188 86.287 10.9145 84.9589 10.9145C82.6688 10.9145 80.3524 12.7115 80.3524 16.1457C80.3524 19.1407 82.3419 21.3982 84.9772 21.3982C85.9812 21.3982 87.3955 20.9883 88.0831 19.8382L88.1981 19.6465V20.9989C88.1978 21.0236 88.2023 21.0481 88.2113 21.071C88.2204 21.094 88.2338 21.1148 88.2508 21.1324C88.2678 21.15 88.2881 21.164 88.3105 21.1735C88.3329 21.183 88.3569 21.1879 88.3812 21.1879H90.2557C90.2799 21.1879 90.3039 21.183 90.3263 21.1735C90.3487 21.164 90.369 21.15 90.386 21.1324C90.403 21.1148 90.4165 21.094 90.4255 21.071C90.4345 21.0481 90.439 21.0236 90.4387 20.9989V5.88296C90.439 5.85826 90.4345 5.83374 90.4255 5.81082C90.4165 5.78791 90.403 5.76705 90.386 5.74946C90.369 5.73187 90.3487 5.71791 90.3263 5.70837C90.3039 5.69884 90.2799 5.69394 90.2557 5.69394ZM88.1642 16.1324C88.1767 16.5194 88.1137 16.9051 87.9789 17.2672C87.8441 17.6293 87.6401 17.9605 87.3787 18.2418C87.1174 18.523 86.8038 18.7487 86.4562 18.9058C86.1086 19.0628 85.7339 19.1481 85.3537 19.1567C83.8217 19.1567 82.6217 17.8256 82.6217 16.1324C82.6217 14.4393 83.8217 13.1508 85.3537 13.1508C86.1128 13.1703 86.8335 13.4948 87.3585 14.0534C87.8836 14.6119 88.1704 15.3593 88.1563 16.1324H88.1642Z" fill="white"/>
<path d="M93.0609 11.1408H94.9328C94.9813 11.1408 95.0278 11.1605 95.0622 11.1954C95.0965 11.2304 95.1158 11.2778 95.1158 11.3272V20.999C95.1158 21.0484 95.0965 21.0958 95.0622 21.1307C95.0278 21.1657 94.9813 21.1853 94.9328 21.1853H93.0609C93.0116 21.1853 92.9644 21.1654 92.9296 21.1299C92.8948 21.0945 92.8752 21.0464 92.8752 20.9963V11.3272C92.8759 11.2775 92.8958 11.2301 92.9305 11.1953C92.9653 11.1604 93.0121 11.1408 93.0609 11.1408Z" fill="white"/>
<path d="M94.0047 6.00035C93.8109 5.9961 93.6181 6.03131 93.4378 6.10393C93.2575 6.17654 93.0932 6.28509 92.9547 6.42321C92.8161 6.56133 92.7061 6.72624 92.6309 6.90826C92.5558 7.09028 92.5171 7.28575 92.5172 7.4832C92.5213 7.88096 92.6803 8.26079 92.9592 8.5393C93.2381 8.81782 93.6141 8.97225 94.0047 8.9687C94.1973 8.97119 94.3885 8.93452 94.5671 8.86084C94.7456 8.78717 94.9079 8.67797 95.0445 8.53964C95.181 8.40131 95.2891 8.23662 95.3625 8.05522C95.4358 7.87382 95.4728 7.67935 95.4714 7.4832C95.4746 7.28666 95.4388 7.09149 95.3661 6.90939C95.2934 6.7273 95.1853 6.56205 95.0483 6.42355C94.9114 6.28506 94.7483 6.17618 94.569 6.10346C94.3896 6.03073 94.1977 5.99566 94.0047 6.00035Z" fill="white"/>
<path d="M102.826 10.9224C102.005 10.9224 100.546 11.3723 99.9894 12.5703L99.809 12.5331V11.3271C99.809 11.3024 99.8041 11.2779 99.7948 11.2551C99.7854 11.2324 99.7717 11.2117 99.7544 11.1944C99.7372 11.177 99.7167 11.1633 99.6942 11.1541C99.6717 11.1449 99.6476 11.1404 99.6233 11.1407H97.7514C97.7029 11.1407 97.6564 11.1604 97.622 11.1953C97.5877 11.2303 97.5684 11.2777 97.5684 11.3271V20.9988C97.5681 21.0235 97.5726 21.0481 97.5816 21.071C97.5907 21.0939 97.6041 21.1147 97.6211 21.1323C97.6381 21.1499 97.6584 21.1639 97.6808 21.1734C97.7032 21.183 97.7272 21.1879 97.7514 21.1879H99.6233C99.6726 21.1879 99.7198 21.1679 99.7546 21.1325C99.7894 21.097 99.809 21.049 99.809 20.9988V15.9407C99.809 13.9813 101.148 13.2785 102.295 13.2785C103.31 13.2785 104.332 14.0532 104.332 15.7809V20.9988C104.332 21.049 104.351 21.097 104.386 21.1325C104.421 21.1679 104.468 21.1879 104.517 21.1879H106.395C106.444 21.1879 106.491 21.1679 106.526 21.1325C106.561 21.097 106.58 21.049 106.58 20.9988V15.544C106.575 12.565 105.242 10.9224 102.826 10.9224Z" fill="white"/>
<path d="M117.761 11.1414H115.889C115.865 11.141 115.841 11.1456 115.819 11.1548C115.796 11.164 115.776 11.1777 115.758 11.195C115.741 11.2124 115.727 11.233 115.718 11.2558C115.709 11.2786 115.704 11.3031 115.704 11.3278V12.6588L115.591 12.4725C115.019 11.5381 113.793 10.9337 112.454 10.9337C110.167 10.9337 107.848 12.7307 107.848 16.165C107.848 19.1599 109.837 21.4175 112.475 21.4175C113.476 21.4175 114.891 21.0075 115.581 19.8574L115.693 19.6658V20.9995C115.693 21.0496 115.713 21.0977 115.748 21.1332C115.783 21.1686 115.83 21.1885 115.879 21.1885H117.751C117.775 21.1885 117.799 21.1836 117.822 21.1741C117.844 21.1646 117.864 21.1506 117.881 21.133C117.898 21.1154 117.912 21.0946 117.921 21.0716C117.93 21.0487 117.934 21.0242 117.934 20.9995V11.3278C117.934 11.2801 117.916 11.2343 117.884 11.1996C117.852 11.1649 117.808 11.1441 117.761 11.1414ZM115.67 16.133C115.682 16.5207 115.619 16.907 115.484 17.2696C115.349 17.6322 115.144 17.9638 114.882 18.2452C114.619 18.5265 114.305 18.7521 113.956 18.9086C113.608 19.0652 113.232 19.1497 112.852 19.1573C111.32 19.1573 110.122 17.8262 110.122 16.133C110.122 14.4399 111.32 13.1514 112.852 13.1514C113.612 13.1681 114.336 13.4914 114.863 14.0503C115.39 14.6092 115.679 15.3581 115.665 16.133H115.67Z" fill="white"/>
<path d="M126.303 11.1752C125.876 10.9991 125.42 10.9087 124.959 10.909C123.715 10.909 122.81 11.6678 122.345 13.1053L122.177 13.0814V11.327C122.177 11.3023 122.172 11.2778 122.163 11.2551C122.154 11.2323 122.14 11.2116 122.123 11.1943C122.105 11.1769 122.085 11.1633 122.062 11.1541C122.04 11.1448 122.016 11.1403 121.992 11.1406H120.12C120.096 11.1403 120.071 11.1448 120.049 11.1541C120.026 11.1633 120.006 11.1769 119.989 11.1943C119.971 11.2116 119.958 11.2323 119.948 11.2551C119.939 11.2778 119.934 11.3023 119.934 11.327V20.9988C119.934 21.0489 119.954 21.097 119.989 21.1324C120.023 21.1679 120.071 21.1878 120.12 21.1878H122.013C122.037 21.1878 122.061 21.1829 122.083 21.1733C122.106 21.1638 122.126 21.1498 122.143 21.1322C122.16 21.1147 122.173 21.0938 122.182 21.0709C122.191 21.048 122.196 21.0234 122.196 20.9988V17.6976C122.196 13.7576 123.741 13.1719 124.664 13.1719C125.053 13.1729 125.438 13.2544 125.796 13.4115C125.821 13.4234 125.848 13.4295 125.875 13.4295C125.903 13.4295 125.93 13.4234 125.955 13.4115C125.979 13.3986 126 13.3805 126.016 13.3584C126.033 13.3363 126.044 13.3108 126.049 13.2837L126.42 11.3909C126.429 11.3466 126.422 11.3004 126.401 11.2608C126.379 11.2213 126.344 11.1909 126.303 11.1752Z" fill="white"/>
<path d="M136.69 11.2234C136.673 11.1975 136.65 11.1763 136.623 11.1619C136.596 11.1475 136.566 11.1402 136.535 11.1409H134.52C134.483 11.1413 134.446 11.1529 134.416 11.1742C134.385 11.1955 134.361 11.2256 134.347 11.2607L131.908 17.6979L129.445 11.2607C129.431 11.2256 129.408 11.1955 129.377 11.1742C129.346 11.1529 129.31 11.1413 129.273 11.1409H127.218C127.188 11.1407 127.158 11.1482 127.132 11.1626C127.105 11.177 127.083 11.1979 127.066 11.2234C127.049 11.2489 127.039 11.2782 127.035 11.3089C127.032 11.3396 127.036 11.3706 127.048 11.3991L130.708 20.5517L128.687 25.9001C128.674 25.9291 128.669 25.961 128.672 25.9927C128.674 26.0244 128.684 26.0549 128.702 26.0814C128.719 26.108 128.742 26.1297 128.77 26.1445C128.798 26.1594 128.828 26.1668 128.86 26.1663H130.82C130.857 26.1665 130.894 26.1551 130.924 26.1337C130.954 26.1122 130.978 26.0818 130.99 26.0465L136.705 11.4044C136.718 11.3755 136.724 11.3435 136.721 11.3118C136.718 11.2801 136.708 11.2496 136.69 11.2234Z" fill="white"/>
<path d="M31.5998 7.87692C30.9234 5.71716 29.5938 3.83043 27.8011 2.48639C26.0084 1.14236 23.8443 0.40982 21.6181 0.393484C19.736 0.382494 17.8865 0.893923 16.2683 1.87282C14.6502 2.85172 13.3245 4.26108 12.4338 5.94949C10.7968 6.24822 9.29617 7.07116 8.15028 8.29852C7.00439 9.52588 6.27308 11.0936 6.06278 12.7735C5.85248 14.4534 6.17417 16.1578 6.98103 17.6387C7.7879 19.1195 9.03782 20.2995 10.5489 21.0069L10.7449 21.0974H10.758V18.8345C9.72144 18.1866 8.90993 17.2246 8.43725 16.0834C7.96457 14.9422 7.8544 13.679 8.12219 12.4708C8.38998 11.2627 9.0223 10.1701 9.93053 9.34627C10.8388 8.52245 11.9774 8.00866 13.1868 7.87692L13.7358 7.81835L13.9763 7.3152C14.6592 5.84142 15.7411 4.5968 17.0949 3.72765C18.4486 2.8585 20.0178 2.40094 21.6181 2.40877C23.525 2.42247 25.3726 3.08497 26.8672 4.29093C28.3618 5.49688 29.4175 7.17705 29.8665 9.06426L30.0547 9.82565H30.839C32.1034 9.85205 33.3075 10.3809 34.1941 11.2991C35.0807 12.2174 35.5796 13.4523 35.5841 14.7401C35.5841 16.6169 34.5201 18.153 32.7083 18.9304V21.0761L32.839 21.0335C35.7514 20.0618 37.5606 17.6498 37.5606 14.7401C37.5486 13.0559 36.9384 11.4331 35.8427 10.1715C34.7469 8.90995 33.2398 8.09487 31.5998 7.87692Z" fill="#3847BE"/>
<path d="M17.7855 20.837L18.2195 21.2789C18.2312 21.2912 18.2391 21.3067 18.2423 21.3235C18.2455 21.3403 18.2438 21.3577 18.2374 21.3735C18.231 21.3894 18.2202 21.403 18.2064 21.4126C18.1925 21.4223 18.1762 21.4276 18.1593 21.428H14.7345C14.3185 21.428 13.9195 21.2597 13.6253 20.9601C13.3312 20.6606 13.1659 20.2543 13.1659 19.8307V13.058C13.1659 13.0347 13.1568 13.0124 13.1406 12.9959C13.1244 12.9794 13.1025 12.9702 13.0796 12.9702H12.3476C12.3306 12.9704 12.3139 12.9654 12.2996 12.9559C12.2853 12.9465 12.2741 12.9329 12.2674 12.9169C12.2607 12.901 12.2588 12.8834 12.2619 12.8663C12.265 12.8493 12.273 12.8335 12.2848 12.8211L15.192 9.86074C15.2001 9.85245 15.2096 9.84587 15.2202 9.84137C15.2307 9.83688 15.242 9.83456 15.2535 9.83456C15.2649 9.83456 15.2762 9.83688 15.2868 9.84137C15.2973 9.84587 15.3069 9.85245 15.3149 9.86074L18.2195 12.8211C18.2312 12.8334 18.2391 12.8489 18.2423 12.8657C18.2455 12.8825 18.2438 12.8999 18.2374 12.9157C18.231 12.9316 18.2202 12.9452 18.2064 12.9548C18.1925 12.9645 18.1762 12.9698 18.1593 12.9702H17.4169C17.3937 12.9702 17.3715 12.9793 17.3549 12.9957C17.3383 13.0122 17.3287 13.0345 17.328 13.058V19.7135C17.329 20.1348 17.4935 20.5386 17.7855 20.837Z" fill="#3847BE"/>
<path d="M24.2087 20.8365L24.6453 21.2784C24.6571 21.2908 24.6651 21.3066 24.6682 21.3236C24.6713 21.3407 24.6694 21.3583 24.6627 21.3742C24.656 21.3902 24.6448 21.4038 24.6305 21.4132C24.6163 21.4227 24.5996 21.4277 24.5825 21.4275H21.1655C20.7495 21.4275 20.3505 21.2592 20.0564 20.9596C19.7622 20.6601 19.5969 20.2538 19.5969 19.8302V14.7693C19.5969 14.7458 19.5879 14.7232 19.5718 14.7063C19.5557 14.6894 19.5338 14.6795 19.5106 14.6788H18.7708C18.754 14.6785 18.7376 14.6731 18.7237 14.6635C18.7099 14.6538 18.6991 14.6402 18.6927 14.6244C18.6863 14.6085 18.6846 14.5911 18.6878 14.5743C18.691 14.5575 18.6989 14.542 18.7106 14.5297L21.6152 11.5747C21.6232 11.5664 21.6328 11.5598 21.6433 11.5553C21.6539 11.5508 21.6652 11.5485 21.6766 11.5485C21.6881 11.5485 21.6994 11.5508 21.7099 11.5553C21.7205 11.5598 21.7301 11.5664 21.7381 11.5747L24.6453 14.5244C24.6571 14.5368 24.6651 14.5526 24.6682 14.5696C24.6713 14.5867 24.6694 14.6043 24.6627 14.6203C24.656 14.6362 24.6448 14.6498 24.6305 14.6592C24.6163 14.6687 24.5996 14.6737 24.5825 14.6735H23.84C23.8169 14.6742 23.795 14.684 23.7789 14.7009C23.7628 14.7178 23.7538 14.7405 23.7538 14.764V19.713C23.7541 20.1339 23.9176 20.5377 24.2087 20.8365Z" fill="#3847BE"/>
<path d="M30.635 20.8369L31.069 21.2788C31.0807 21.2911 31.0887 21.3066 31.0919 21.3234C31.095 21.3402 31.0933 21.3576 31.0869 21.3735C31.0806 21.3893 31.0698 21.4029 31.0559 21.4126C31.042 21.4222 31.0257 21.4276 31.0089 21.4279H27.5814C27.1654 21.4279 26.7664 21.2596 26.4722 20.9601C26.1781 20.6605 26.0128 20.2542 26.0128 19.8306V16.4683C26.0128 16.445 26.0037 16.4226 25.9875 16.4061C25.9713 16.3897 25.9494 16.3804 25.9265 16.3804H25.1945C25.1771 16.3806 25.1601 16.3754 25.1457 16.3656C25.1313 16.3558 25.1201 16.3418 25.1136 16.3254C25.1071 16.309 25.1056 16.291 25.1093 16.2738C25.113 16.2565 25.1217 16.2408 25.1344 16.2287L28.0415 13.271C28.0494 13.2627 28.0587 13.2562 28.069 13.2518C28.0794 13.2473 28.0905 13.245 28.1017 13.245C28.1129 13.245 28.124 13.2473 28.1343 13.2518C28.1447 13.2562 28.154 13.2627 28.1618 13.271L31.069 16.2287C31.0816 16.2408 31.0904 16.2565 31.0941 16.2738C31.0978 16.291 31.0963 16.309 31.0898 16.3254C31.0833 16.3418 31.0721 16.3558 31.0577 16.3656C31.0432 16.3754 31.0262 16.3806 31.0089 16.3804H30.2638C30.2409 16.3804 30.2189 16.3897 30.2028 16.4061C30.1866 16.4226 30.1775 16.445 30.1775 16.4683V19.7135C30.1785 20.1347 30.343 20.5385 30.635 20.8369Z" fill="#3847BE"/>
</svg>
