<svg width="117" height="27" viewBox="0 0 117 27" fill="none" xmlns="http://www.w3.org/2000/svg">
<path d="M35.8181 11.3339C35.0761 10.8257 33.127 10.6087 31.7101 10.9974C31.634 9.56125 30.9056 8.35081 29.5742 7.29464L29.0815 6.95815L28.7531 7.46312C28.1074 8.46022 27.8352 9.78924 27.9315 10.9974C28.0075 11.7418 28.2617 12.5782 28.7531 13.1853C26.9087 14.2739 25.2084 14.0267 17.679 14.0267H6.05427C6.02052 15.7568 6.29364 19.0841 8.37328 21.793C8.6032 22.0924 8.85472 22.3817 9.12829 22.6605C10.8192 24.3832 13.374 25.6468 17.194 25.65C23.0221 25.6555 28.0151 22.4499 31.0527 14.7001C32.052 14.7166 34.6905 14.8824 35.9819 12.3438C36.0134 12.3012 36.3103 11.6708 36.3103 11.6708L35.8181 11.3343V11.3339ZM13.6408 9.75216H10.3719V13.0781H13.6408V9.75216ZM17.8635 9.75216H14.5947V13.0781H17.8635V9.75216ZM22.0867 9.75216H18.8178V13.0781H22.0867V9.75216ZM26.3099 9.75216H23.041V13.0781H26.3099V9.75216ZM9.4176 9.75216H6.14876V13.0781H9.4176V9.75216ZM13.6408 5.55131H10.3719V8.87729H13.6408V5.55131ZM17.8635 5.55131H14.5947V8.87729H17.8635V5.55131ZM22.0867 5.55131H18.8178V8.87729H22.0867V5.55131ZM22.0867 1.35001H18.8178V4.67598H22.0867V1.35001Z" fill="#1D63ED"/>
<path d="M110.947 20.5459C110.947 21.413 110.276 22.0937 109.403 22.0937C108.531 22.0937 107.85 21.413 107.85 20.5459C107.85 19.6788 108.539 19.0168 109.403 19.0168C110.267 19.0168 110.947 19.6976 110.947 20.5459ZM108.236 20.5459C108.236 21.2267 108.733 21.7673 109.413 21.7673C110.093 21.7673 110.561 21.2267 110.561 20.5555C110.561 19.8844 110.074 19.3245 109.404 19.3245C108.734 19.3245 108.237 19.8747 108.237 20.5459H108.236ZM109.165 21.348H108.816V19.8189C108.953 19.791 109.146 19.7722 109.394 19.7722C109.679 19.7722 109.807 19.8189 109.918 19.8844C110.001 19.9494 110.065 20.0707 110.065 20.2199C110.065 20.388 109.936 20.5184 109.753 20.5743V20.593C109.899 20.6484 109.982 20.7606 110.028 20.9657C110.074 21.1987 110.102 21.2921 110.139 21.348H109.762C109.716 21.2921 109.688 21.1525 109.643 20.9749C109.615 20.8073 109.523 20.7327 109.33 20.7327H109.165V21.3484V21.348ZM109.173 20.4809H109.339C109.532 20.4809 109.688 20.4159 109.688 20.2575C109.688 20.1174 109.587 20.0235 109.366 20.0235C109.275 20.0235 109.21 20.0331 109.173 20.0432V20.4809Z" fill="white"/>
<path d="M51.741 5.07089C51.5249 4.85664 51.2654 4.74768 50.9546 4.74768C50.6437 4.74768 50.3766 4.85664 50.1687 5.07089C49.9602 5.28515 49.8582 5.55983 49.8582 5.88717V11.3534C48.789 10.4565 47.555 10.0042 46.1515 10.0042C44.52 10.0042 43.125 10.6021 41.9692 11.802C40.8133 12.9978 40.2394 14.4445 40.2394 16.1412C40.2394 17.8378 40.8173 19.2803 41.9692 20.4803C43.125 21.6761 44.5164 22.2781 46.1515 22.2781C47.7865 22.2781 49.1625 21.6802 50.3338 20.4803C51.4897 19.2964 52.0636 17.8502 52.0636 16.1412V5.88717C52.0636 5.55983 51.9575 5.28515 51.741 5.07089ZM49.5672 17.6199V17.6281C49.3746 18.0928 49.1111 18.5007 48.7773 18.8482C48.4434 19.1998 48.05 19.4745 47.602 19.6805C47.1499 19.8865 46.6703 19.9877 46.1555 19.9877C45.6407 19.9877 45.1494 19.8865 44.6974 19.6805C44.2453 19.4745 43.8559 19.1998 43.5261 18.8523C43.1959 18.5048 42.9328 18.0969 42.7402 17.6322C42.5475 17.1634 42.4492 16.6667 42.4492 16.1412C42.4492 15.6156 42.5475 15.1189 42.7402 14.6501C42.9328 14.1813 43.1963 13.7775 43.5261 13.43C43.8564 13.0825 44.2493 12.8079 44.6974 12.6018C45.1494 12.3958 45.6331 12.2946 46.1555 12.2946C46.678 12.2946 47.1499 12.3958 47.602 12.6018C48.054 12.8079 48.4434 13.0825 48.7773 13.4341C49.1111 13.7857 49.3746 14.1936 49.5672 14.6542C49.7599 15.1189 49.8582 15.6119 49.8582 16.137C49.8582 16.6621 49.7599 17.1593 49.5672 17.6199Z" fill="white"/>
<path d="M100.585 13.786C100.298 13.0585 99.8606 12.4002 99.2871 11.8101L99.2795 11.8059C98.1118 10.6101 96.7159 10.0081 95.0971 10.0081C93.4784 10.0081 92.0703 10.606 90.9144 11.8059C89.7585 13.0017 89.1851 14.4484 89.1851 16.145C89.1851 17.8417 89.763 19.2842 90.9144 20.4841C92.0703 21.6799 93.4621 22.282 95.0971 22.282C96.5824 22.282 97.8678 21.7852 98.9609 20.7913C99.1725 20.5652 99.2795 20.2905 99.2795 19.9709C99.2795 19.6514 99.1775 19.3689 98.9686 19.1547C98.7606 18.9404 98.4971 18.8315 98.1827 18.8315C97.9079 18.8397 97.6638 18.9326 97.4558 19.1185C97.1256 19.4092 96.7678 19.6317 96.3789 19.7773C95.9896 19.9229 95.565 19.9957 95.1017 19.9957C94.6924 19.9957 94.2995 19.9311 93.9264 19.7979C93.5523 19.6647 93.2031 19.4825 92.8923 19.2444C92.5774 19.0059 92.3067 18.7234 92.0748 18.3878C91.8429 18.0564 91.666 17.6888 91.5483 17.285H99.9093C100.219 17.285 100.479 17.176 100.695 16.9618C100.912 16.7475 101.018 16.4728 101.018 16.1455C101.018 15.2972 100.872 14.5093 100.586 13.786H100.585ZM91.5397 15.006C91.6538 14.6059 91.8266 14.2383 92.0585 13.9032C92.2909 13.5717 92.5657 13.2851 92.8801 13.0466C93.1986 12.8081 93.5442 12.6263 93.9255 12.4931C94.3063 12.3599 94.6952 12.2953 95.0971 12.2953C95.4991 12.2953 95.8871 12.3599 96.2639 12.4931C96.6415 12.6263 96.988 12.8081 97.2979 13.0466C97.6129 13.2851 97.8876 13.5676 98.1195 13.9032C98.355 14.2346 98.5328 14.6022 98.6546 15.006H91.5392H91.5397Z" fill="white"/>
<path d="M110.86 10.7756C110.663 10.5778 110.415 10.424 110.116 10.3109C109.818 10.1978 109.492 10.1209 109.134 10.0765C108.78 10.0321 108.446 10.012 108.136 10.012C107.432 10.012 106.772 10.1292 106.151 10.3636C105.529 10.598 104.956 10.9331 104.429 11.3694V11.1514C104.429 10.8365 104.323 10.5696 104.106 10.3475C103.89 10.1255 103.635 10.0124 103.332 10.0124C103.03 10.0124 102.762 10.1255 102.546 10.3475C102.33 10.5696 102.224 10.8406 102.224 11.1514V21.1431C102.224 21.4581 102.33 21.725 102.546 21.947C102.762 22.1691 103.021 22.2821 103.332 22.2821C103.643 22.2821 103.894 22.1691 104.106 21.947C104.323 21.725 104.429 21.454 104.429 21.1431V16.1452C104.429 15.6119 104.527 15.111 104.72 14.6422C104.912 14.1734 105.176 13.7697 105.51 13.4222C105.844 13.0747 106.237 12.8 106.685 12.6018C107.137 12.3999 107.617 12.2987 108.132 12.2987C108.647 12.2987 109.134 12.3916 109.579 12.5734C109.755 12.6544 109.909 12.6947 110.042 12.6947C110.196 12.6947 110.341 12.6663 110.475 12.6059C110.608 12.5455 110.726 12.4644 110.825 12.3596C110.923 12.2548 111.001 12.1334 111.06 11.992C111.119 11.8546 111.151 11.7049 111.151 11.5433C111.151 11.2284 111.053 10.9738 110.856 10.7756H110.86H110.86Z" fill="white"/>
<path d="M64.7044 13.7899C64.4174 13.0666 63.9888 12.4041 63.4113 11.8062C62.2442 10.6104 60.8487 10.0084 59.229 10.0084C57.6093 10.0084 56.2026 10.6063 55.0467 11.8062C53.8908 13.002 53.3174 14.4487 53.3174 16.1453C53.3174 17.842 53.8953 19.2845 55.0467 20.4844C56.2026 21.6802 57.594 22.2823 59.229 22.2823C60.864 22.2823 62.2401 21.6844 63.4113 20.4844C64.5672 19.3006 65.1411 17.8543 65.1411 16.1453C65.133 15.297 64.9877 14.5133 64.7048 13.7899H64.7044ZM62.6448 17.6199V17.6282C62.4522 18.0929 62.1887 18.5008 61.8548 18.8482C61.5209 19.1998 61.1275 19.4745 60.6795 19.6805C60.2315 19.8865 59.7479 19.9877 59.2331 19.9877C58.7183 19.9877 58.227 19.8865 57.7749 19.6805C57.3228 19.4745 56.9335 19.1998 56.6037 18.8524C56.2734 18.5049 56.0104 18.097 55.8177 17.6323C55.6251 17.1635 55.5267 16.6668 55.5267 16.1412C55.5267 15.6157 55.6251 15.1189 55.8177 14.6501C56.0104 14.1813 56.2739 13.7776 56.6037 13.4301C56.9339 13.0826 57.3269 12.8079 57.7749 12.6019C58.227 12.3959 58.7106 12.2947 59.2331 12.2947C59.7555 12.2947 60.2275 12.3959 60.6795 12.6019C61.1316 12.8079 61.5209 13.0826 61.8548 13.4342C62.1887 13.7858 62.4522 14.1937 62.6448 14.6543C62.8374 15.1189 62.9358 15.612 62.9358 16.1371C62.9358 16.6622 62.8374 17.1594 62.6448 17.6199Z" fill="white"/>
<path d="M88.3512 11.1475C88.3512 10.9941 88.3197 10.8485 88.261 10.7112C88.2019 10.5738 88.1234 10.4489 88.025 10.3436C87.9267 10.2387 87.8089 10.1536 87.6754 10.0973C87.5418 10.041 87.3966 10.0084 87.2432 10.0084C87.023 10.0084 86.8263 10.0652 86.6535 10.1824L80.3408 14.4451V5.8955C80.3408 5.57229 80.2348 5.30172 80.0186 5.07923C79.8025 4.85719 79.5472 4.74411 79.2444 4.74411C78.9417 4.74411 78.6746 4.85719 78.4581 5.07923C78.242 5.30126 78.1359 5.57229 78.1359 5.8955V21.1272C78.1359 21.4422 78.242 21.7132 78.4581 21.9394C78.6742 22.1655 78.9336 22.2786 79.2444 22.2786C79.5553 22.2786 79.8066 22.1655 80.0186 21.9394C80.2348 21.7132 80.3408 21.4422 80.3408 21.1272V17.1718L81.6302 16.2951L86.5082 21.9797C86.7049 22.1774 86.9526 22.2745 87.2472 22.2745C87.4006 22.2745 87.5459 22.2461 87.6795 22.1857C87.813 22.1289 87.9312 22.0442 88.0291 21.9394C88.1275 21.8345 88.206 21.7132 88.2651 21.5718C88.3242 21.4344 88.3553 21.2847 88.3553 21.1355C88.3553 20.8365 88.2533 20.5696 88.0485 20.3357L83.5084 15.0311L87.9303 12.0494C88.2132 11.8516 88.3508 11.5485 88.3508 11.1401V11.1484L88.3512 11.1475Z" fill="white"/>
<path d="M69.6612 13.4222C69.9991 13.0747 70.3925 12.8 70.8446 12.6018C71.2967 12.3999 71.7762 12.2987 72.291 12.2987C72.7548 12.2987 73.1834 12.3798 73.5805 12.5409C73.9734 12.7025 74.3511 12.9411 74.7084 13.2519C74.9204 13.4254 75.1604 13.5142 75.4275 13.5142C75.7461 13.5142 76.0055 13.4053 76.2139 13.1869C76.4224 12.9685 76.5243 12.6938 76.5243 12.3665C76.5243 12.0392 76.3984 11.7361 76.1431 11.5022C75.058 10.5083 73.7731 10.0111 72.291 10.0111C70.6596 10.0111 69.2646 10.609 68.1087 11.8089C66.9528 13.0047 66.3794 14.4514 66.3794 16.148C66.3794 17.8446 66.9573 19.2872 68.1087 20.4871C69.2646 21.6829 70.656 22.2849 72.291 22.2849C73.7691 22.2849 75.0544 21.7882 76.1431 20.7938C76.375 20.5517 76.4932 20.2728 76.4932 19.9496C76.4932 19.6264 76.3908 19.3476 76.1828 19.1334C75.9744 18.9191 75.7113 18.8102 75.3969 18.8102C75.1298 18.8184 74.8974 18.899 74.7012 19.0523C74.3474 19.3673 73.9779 19.6017 73.5809 19.7592C73.1879 19.9167 72.7593 19.9936 72.2915 19.9936C71.7767 19.9936 71.2971 19.8924 70.845 19.6905C70.393 19.4886 70 19.2139 69.6616 18.8706C69.3237 18.5272 69.0562 18.1152 68.8635 17.6505C68.6709 17.1817 68.5725 16.6809 68.5725 16.1475C68.5725 15.6142 68.6709 15.1133 68.8635 14.6446C69.0562 14.1758 69.3233 13.772 69.6616 13.4245V13.4204L69.6612 13.4222Z" fill="white"/>
</svg>
