<svg width="87" height="35" viewBox="0 0 87 35" fill="none" xmlns="http://www.w3.org/2000/svg">
<path d="M80.7002 3.93018L77.4762 18.0851L72.9186 12.3986L63.5018 10.9303L80.7002 3.93018Z" fill="#D1ACFF"/>
<path d="M66.1478 17.1414H8.88553C3.97776 17.1414 1.52588e-05 20.9434 1.52588e-05 25.6343C1.52588e-05 30.3252 3.97776 34.1273 8.88553 34.1273H57.2622C62.17 34.1273 66.1478 30.3252 66.1478 25.6343V17.1414Z" fill="#D1ACFF"/>
<path d="M70.0764 1.79892H70.8456L72.183 5.0646H72.2323L73.5697 1.79892H74.339V6H73.7359V2.95996H73.6969L72.4579 5.99385H71.9574L70.7184 2.95791H70.6794V6H70.0764V1.79892ZM76.292 6.06359C75.9816 6.06359 75.7142 5.99726 75.4899 5.86461C75.267 5.73059 75.0947 5.54256 74.973 5.3005C74.8527 5.05708 74.7925 4.77195 74.7925 4.44511C74.7925 4.12237 74.8527 3.83792 74.973 3.59176C75.0947 3.34561 75.2643 3.15347 75.4817 3.01534C75.7005 2.87722 75.9563 2.80816 76.2489 2.80816C76.4267 2.80816 76.599 2.83756 76.7658 2.89637C76.9327 2.95517 77.0824 3.04748 77.2151 3.1733C77.3477 3.29911 77.4523 3.46253 77.5289 3.66356C77.6055 3.86322 77.6438 4.10596 77.6438 4.39177V4.60921H75.1392V4.14972H77.0428C77.0428 3.98835 77.0099 3.84544 76.9443 3.721C76.8787 3.59518 76.7864 3.49603 76.6674 3.42356C76.5498 3.35108 76.4116 3.31484 76.253 3.31484C76.0807 3.31484 75.9303 3.35723 75.8017 3.44202C75.6745 3.52544 75.5761 3.63484 75.5063 3.77023C75.438 3.90425 75.4038 4.04989 75.4038 4.20716V4.56613C75.4038 4.77674 75.4407 4.95588 75.5145 5.10358C75.5898 5.25127 75.6944 5.36409 75.8284 5.44204C75.9624 5.51863 76.119 5.55692 76.2981 5.55692C76.4144 5.55692 76.5204 5.54051 76.6161 5.50769C76.7118 5.4735 76.7946 5.4229 76.8643 5.35589C76.934 5.28888 76.9874 5.20614 77.0243 5.10768L77.6048 5.2123C77.5583 5.38324 77.4749 5.53299 77.3546 5.66153C77.2356 5.78872 77.0858 5.88786 76.9053 5.95897C76.7262 6.02872 76.5217 6.06359 76.292 6.06359Z" fill="#0C0E23"/>
</svg>
