<svg width="35" height="35" viewBox="0 0 35 35" fill="none" xmlns="http://www.w3.org/2000/svg">
<circle cx="16.6325" cy="16.6325" r="16.4578" fill="url(#paint0_linear_2001_7791)" stroke="url(#paint1_linear_2001_7791)" stroke-width="0.349346"/>
<path d="M17.2547 18.5136C18.1373 18.5136 18.8527 17.7978 18.8527 16.9149C18.8527 16.0319 18.1373 15.3162 17.2547 15.3162C16.3722 15.3162 15.6567 16.0319 15.6567 16.9149C15.6567 17.7978 16.3722 18.5136 17.2547 18.5136Z" fill="#00D8FF"/>
<path d="M17.2545 20.5772C15.0103 20.5772 13.0495 20.3129 11.582 19.8097C10.6302 19.4849 9.82162 19.0517 9.24545 18.5581C8.63426 18.0358 8.30957 17.4658 8.30957 16.9148C8.30957 15.8575 9.46828 14.8225 11.4133 14.1473C13.0049 13.5932 15.0804 13.2843 17.2514 13.2843C19.3841 13.2843 21.431 13.5837 23.0131 14.1314C23.9394 14.4499 24.7193 14.8639 25.2732 15.3225C25.8748 15.8257 26.1931 16.3766 26.1931 16.9148C26.1931 18.0135 24.8976 19.125 22.8093 19.8161C21.3323 20.3065 19.3587 20.5772 17.2545 20.5772ZM17.2545 14.0486C15.195 14.0486 13.1577 14.348 11.6679 14.8671C9.87892 15.4913 9.07674 16.3448 9.07674 16.9148C9.07674 17.5072 9.9394 18.4403 11.8303 19.0868C13.2182 19.5613 15.0963 19.8129 17.2545 19.8129C19.2791 19.8129 21.1668 19.5581 22.5706 19.09C24.5347 18.4371 25.4323 17.504 25.4323 16.9148C25.4323 16.6123 25.2032 16.2556 24.7861 15.9085C24.3055 15.5072 23.6052 15.141 22.768 14.8512C21.2623 14.3352 19.3046 14.0486 17.2545 14.0486Z" fill="#00D8FF"/>
<path d="M13.6291 24.8829C13.3044 24.8829 13.0179 24.8128 12.7759 24.6727C11.8623 24.144 11.544 22.6218 11.9292 20.5995C12.2443 18.9403 13.0147 16.9913 14.1002 15.1091C15.1666 13.262 16.4463 11.6378 17.71 10.5391C18.4485 9.89581 19.1966 9.42448 19.8714 9.17608C20.6068 8.90538 21.2434 8.90538 21.7082 9.17289C22.66 9.72066 22.9751 11.4022 22.5295 13.555C22.2143 15.0836 21.4631 16.9276 20.4126 18.7524C19.2921 20.695 18.0824 22.2619 16.9142 23.2842C16.1566 23.9466 15.3767 24.4306 14.6636 24.6822C14.2912 24.816 13.941 24.8829 13.6291 24.8829ZM14.4281 15.3002L14.7591 15.4913C13.7309 17.2747 12.9701 19.1887 12.6773 20.7428C12.3239 22.6058 12.6645 23.7268 13.1548 24.0103C13.2757 24.0803 13.4349 24.1185 13.6291 24.1185C14.2625 24.1185 15.2589 23.7173 16.4112 22.7109C17.5158 21.746 18.6714 20.2428 19.7505 18.3734C20.7628 16.6187 21.4822 14.8543 21.7814 13.4053C22.1984 11.3767 21.8387 10.1347 21.3262 9.83849C21.0652 9.68881 20.6418 9.70792 20.1325 9.89581C19.5436 10.1124 18.8783 10.5359 18.2098 11.1187C17.0097 12.1633 15.7841 13.7174 14.7591 15.4945L14.4281 15.3002Z" fill="#00D8FF"/>
<path d="M20.8805 24.8928C20.0146 24.8928 18.9164 24.3705 17.7704 23.3832C16.4908 22.2813 15.1888 20.6412 14.1001 18.7591C13.0305 16.912 12.2666 14.9916 11.9451 13.3452C11.7572 12.3834 11.7222 11.5012 11.8432 10.7911C11.9769 10.0172 12.292 9.46623 12.76 9.19553C13.7086 8.64458 15.3225 9.21145 16.9651 10.6732C18.1301 11.7082 19.3525 13.2815 20.4062 15.1031C21.5299 17.0457 22.2843 18.8769 22.5835 20.3992C22.7777 21.3864 22.8095 22.3036 22.6726 23.0488C22.5262 23.8418 22.1952 24.4055 21.7177 24.6826C21.4789 24.8227 21.1956 24.8928 20.8805 24.8928ZM14.7622 18.3769C15.7936 20.1603 17.0733 21.775 18.2702 22.8036C19.7058 24.0393 20.8455 24.3068 21.3389 24.0202C21.8514 23.724 22.227 22.5106 21.8386 20.5489C21.5521 19.1094 20.8295 17.3578 19.7472 15.4884C18.7318 13.7337 17.5635 12.2273 16.4589 11.2465C14.9119 9.87068 13.6576 9.56177 13.1451 9.85794C12.8841 10.0076 12.6899 10.3866 12.5976 10.9216C12.4926 11.5394 12.5244 12.3292 12.6963 13.1987C13.0019 14.7623 13.734 16.5999 14.7622 18.3769Z" fill="#00D8FF"/>
<defs>
<linearGradient id="paint0_linear_2001_7791" x1="7.06589" y1="0.349366" x2="31.852" y2="6.25297" gradientUnits="userSpaceOnUse">
<stop stop-color="#04071D"/>
<stop offset="1" stop-color="#0C0E23"/>
</linearGradient>
<linearGradient id="paint1_linear_2001_7791" x1="16.6325" y1="0.349365" x2="16.6325" y2="32.9156" gradientUnits="userSpaceOnUse">
<stop stop-color="#66699C" stop-opacity="0.43"/>
<stop offset="1" stop-color="#363749" stop-opacity="0.49"/>
</linearGradient>
</defs>
</svg>
