<svg width="35" height="35" viewBox="0 0 35 35" fill="none" xmlns="http://www.w3.org/2000/svg">
<circle cx="16.6325" cy="16.6325" r="16.4578" fill="url(#paint0_linear_2001_7799)" stroke="url(#paint1_linear_2001_7799)" stroke-width="0.349346"/>
<path fill-rule="evenodd" clip-rule="evenodd" d="M16.6122 11.7928C14.3418 11.7928 12.9233 12.9351 12.3554 15.2197C13.2069 14.0774 14.2001 13.6491 15.335 13.9345C15.9826 14.0973 16.4457 14.5702 16.9578 15.0937C17.7925 15.9462 18.7587 16.9327 20.8685 16.9327C23.1385 16.9327 24.5574 15.7905 25.1249 13.5063C24.2739 14.6485 23.2807 15.0768 22.1457 14.7911C21.4978 14.6283 21.0347 14.1554 20.5226 13.6322C19.6878 12.7791 18.722 11.7928 16.6122 11.7928ZM12.3554 16.9327C10.0855 16.9327 8.66656 18.075 8.09906 20.3595C8.95047 19.2173 9.94367 18.789 11.0783 19.0744C11.7262 19.2372 12.1893 19.7101 12.7014 20.2336C13.5361 21.086 14.502 22.0726 16.6122 22.0726C18.8821 22.0726 20.3011 20.9307 20.8685 18.6461C20.0171 19.7884 19.0239 20.2167 17.8889 19.9313C17.2414 19.7681 16.7783 19.2953 16.2662 18.7721C15.4315 17.9196 14.4653 16.9327 12.3554 16.9327Z" fill="#38BDF8"/>
<defs>
<linearGradient id="paint0_linear_2001_7799" x1="7.06589" y1="0.349366" x2="31.852" y2="6.25297" gradientUnits="userSpaceOnUse">
<stop stop-color="#04071D"/>
<stop offset="1" stop-color="#0C0E23"/>
</linearGradient>
<linearGradient id="paint1_linear_2001_7799" x1="16.6325" y1="0.349365" x2="16.6325" y2="32.9156" gradientUnits="userSpaceOnUse">
<stop stop-color="#66699C" stop-opacity="0.43"/>
<stop offset="1" stop-color="#363749" stop-opacity="0.49"/>
</linearGradient>
</defs>
</svg>
