<svg width="35" height="35" viewBox="0 0 35 35" fill="none" xmlns="http://www.w3.org/2000/svg">
<circle cx="16.6325" cy="16.6325" r="16.4578" fill="url(#paint0_linear_2001_7808)" stroke="url(#paint1_linear_2001_7808)" stroke-width="0.349346"/>
<g clip-path="url(#clip0_2001_7808)">
<path d="M13.2436 24.4374L9.47003 9.4303L24.395 13.6217" fill="white"/>
<path d="M15.0865 17.9874L16.0293 21.7411" stroke="black" stroke-width="0.3184" stroke-miterlimit="10"/>
<path d="M18.8103 19.0421L15.0865 17.9874" stroke="black" stroke-width="0.3184" stroke-miterlimit="10"/>
<path d="M16.0294 21.7409L18.8104 19.042" stroke="black" stroke-width="0.3184" stroke-miterlimit="10"/>
<path d="M16.0294 21.741L12.3056 20.6863" stroke="black" stroke-width="0.3184" stroke-miterlimit="10"/>
<path d="M12.3056 20.6863L13.2484 24.4424L16.0294 21.741" stroke="black" stroke-width="0.3184" stroke-miterlimit="10"/>
<path d="M12.3056 20.6864L15.0866 17.9874" stroke="black" stroke-width="0.3184" stroke-miterlimit="10"/>
<path d="M15.0865 17.9874L17.8701 15.286" stroke="black" stroke-width="0.3184" stroke-miterlimit="10"/>
<path d="M17.8701 15.286L20.6511 12.587" stroke="black" stroke-width="0.3184" stroke-miterlimit="10"/>
<path d="M16.9276 11.5322L17.8703 15.2859" stroke="black" stroke-width="0.3184" stroke-miterlimit="10"/>
<path d="M17.8703 15.2859L14.144 14.2336" stroke="black" stroke-width="0.3184" stroke-miterlimit="10"/>
<path d="M14.144 14.2336L15.0868 17.9873" stroke="black" stroke-width="0.3184" stroke-miterlimit="10"/>
<path d="M15.0866 17.9874L11.3628 16.9327" stroke="black" stroke-width="0.3184" stroke-miterlimit="10"/>
<path d="M11.3628 16.9327L12.3056 20.6864" stroke="black" stroke-width="0.3184" stroke-miterlimit="10"/>
<path d="M10.4202 13.1791L11.363 16.9327" stroke="black" stroke-width="0.3184" stroke-miterlimit="10"/>
<path d="M14.144 14.2338L10.4202 13.1791" stroke="black" stroke-width="0.3184" stroke-miterlimit="10"/>
<path d="M11.3628 16.9326L14.1438 14.2336" stroke="black" stroke-width="0.3184" stroke-miterlimit="10"/>
<path d="M14.144 14.2312L16.9276 11.5322" stroke="black" stroke-width="0.3184" stroke-miterlimit="10"/>
<path d="M16.9274 11.5324L13.2012 10.4777" stroke="black" stroke-width="0.3184" stroke-miterlimit="10"/>
<path d="M13.2012 10.4777L14.1439 14.2313" stroke="black" stroke-width="0.3184" stroke-miterlimit="10"/>
<path d="M10.4202 13.179L9.47748 9.42285L13.2013 10.4776" stroke="black" stroke-width="0.3184" stroke-miterlimit="10"/>
<path d="M10.4202 13.1791L13.2013 10.4777" stroke="black" stroke-width="0.3184" stroke-miterlimit="10"/>
<path d="M21.5941 16.3407L24.3752 13.6417L20.6514 12.587" stroke="black" stroke-width="0.3184" stroke-miterlimit="10"/>
<path d="M20.6514 12.587L21.5941 16.3407" stroke="black" stroke-width="0.3184" stroke-miterlimit="10"/>
<path d="M21.5939 16.3407L17.8701 15.286" stroke="black" stroke-width="0.3184" stroke-miterlimit="10"/>
<path d="M17.8701 15.286L18.8104 19.0421" stroke="black" stroke-width="0.3184" stroke-miterlimit="10"/>
<path d="M18.8104 19.042L21.5939 16.3406" stroke="black" stroke-width="0.3184" stroke-miterlimit="10"/>
<path d="M20.6513 12.5869L16.9276 11.5322" stroke="black" stroke-width="0.3184" stroke-miterlimit="10"/>
</g>
<defs>
<linearGradient id="paint0_linear_2001_7808" x1="7.06589" y1="0.349366" x2="31.852" y2="6.25297" gradientUnits="userSpaceOnUse">
<stop stop-color="#04071D"/>
<stop offset="1" stop-color="#0C0E23"/>
</linearGradient>
<linearGradient id="paint1_linear_2001_7808" x1="16.6325" y1="0.349365" x2="16.6325" y2="32.9156" gradientUnits="userSpaceOnUse">
<stop stop-color="#66699C" stop-opacity="0.43"/>
<stop offset="1" stop-color="#363749" stop-opacity="0.49"/>
</linearGradient>
<clipPath id="clip0_2001_7808">
<rect width="15.92" height="15.92" fill="white" transform="translate(8.97272 8.97266)"/>
</clipPath>
</defs>
</svg>
