<svg width="35" height="35" viewBox="0 0 35 35" fill="none" xmlns="http://www.w3.org/2000/svg">
<circle cx="16.6325" cy="16.6325" r="16.4578" fill="url(#paint0_linear_2001_7803)" stroke="url(#paint1_linear_2001_7803)" stroke-width="0.349346"/>
<g clip-path="url(#clip0_2001_7803)">
<path d="M22.5045 8.97253H11.3605C10.0417 8.97253 8.97253 10.0417 8.97253 11.3605V22.5045C8.97253 23.8234 10.0417 24.8925 11.3605 24.8925H22.5045C23.8234 24.8925 24.8925 23.8234 24.8925 22.5045V11.3605C24.8925 10.0417 23.8234 8.97253 22.5045 8.97253Z" fill="#3178C6"/>
<path d="M16.2176 17.8033H18.2076V16.5285H12.6418V17.8033H14.6318V23.4935H16.2176V17.8033ZM18.8294 23.1825C19.0813 23.3131 19.3891 23.4095 19.7312 23.4748C20.0732 23.5401 20.4463 23.5712 20.8194 23.5712C21.1926 23.5712 21.5346 23.537 21.8766 23.4655C22.2187 23.394 22.4985 23.2758 22.7473 23.1235C22.9991 22.9587 23.2137 22.7503 23.338 22.4705C23.4624 22.1906 23.5588 21.8797 23.5588 21.4755C23.5588 21.1925 23.5153 20.9469 23.4313 20.7292C23.3474 20.5116 23.2261 20.325 23.0582 20.1696C22.8996 20.0048 22.7162 19.8586 22.4985 19.7342C22.2808 19.6099 22.0321 19.4793 21.7523 19.3611C21.547 19.2772 21.3791 19.1963 21.1926 19.1155C21.0309 19.0346 20.891 18.9538 20.7883 18.8729C20.6733 18.789 20.5862 18.7019 20.524 18.6118C20.4619 18.5185 20.4308 18.4159 20.4308 18.3008C20.4308 18.1951 20.4584 18.0987 20.5147 18.0116C20.571 17.9246 20.6484 17.8531 20.7479 17.7909C20.8474 17.7287 20.9718 17.6821 21.121 17.6478C21.2672 17.6136 21.4289 17.5981 21.6186 17.5981C21.7491 17.5981 21.886 17.6077 22.0228 17.6273C22.1658 17.6469 22.3119 17.6771 22.4581 17.7175C22.6042 17.7579 22.7473 17.8077 22.8934 17.8699C23.0302 17.932 23.1577 18.0036 23.2665 18.0844V16.623C23.0302 16.5328 22.769 16.4644 22.4892 16.4209C22.2093 16.3774 21.8984 16.3556 21.5253 16.3556C21.1521 16.3556 20.8101 16.396 20.4681 16.4737C20.1261 16.5515 19.8462 16.6759 19.5975 16.8469C19.3456 17.0148 19.1621 17.22 19.0067 17.4998C18.8605 17.761 18.789 18.0595 18.789 18.4327C18.789 18.8991 18.9227 19.3033 19.1932 19.6142C19.4606 19.9562 19.8773 20.205 20.4059 20.4537C20.6204 20.5408 20.8101 20.6279 20.9967 20.7118C21.1832 20.7958 21.3387 20.8828 21.4631 20.973C21.5968 21.0632 21.7025 21.1627 21.774 21.2684C21.8518 21.3741 21.8922 21.4985 21.8922 21.6415C21.8922 21.741 21.8679 21.8343 21.8207 21.9214C21.7734 22.0084 21.6994 22.0831 21.5999 22.1452C21.5004 22.2074 21.3791 22.2572 21.2268 22.2945C21.0806 22.3287 20.9158 22.3474 20.6982 22.3474C20.3561 22.3474 20.0141 22.2883 19.7032 22.1701C19.3611 22.052 19.0502 21.8747 18.8294 21.69V23.1825Z" fill="white"/>
</g>
<defs>
<linearGradient id="paint0_linear_2001_7803" x1="7.06589" y1="0.349366" x2="31.852" y2="6.25297" gradientUnits="userSpaceOnUse">
<stop stop-color="#04071D"/>
<stop offset="1" stop-color="#0C0E23"/>
</linearGradient>
<linearGradient id="paint1_linear_2001_7803" x1="16.6325" y1="0.349365" x2="16.6325" y2="32.9156" gradientUnits="userSpaceOnUse">
<stop stop-color="#66699C" stop-opacity="0.43"/>
<stop offset="1" stop-color="#363749" stop-opacity="0.49"/>
</linearGradient>
<clipPath id="clip0_2001_7803">
<rect width="15.92" height="15.92" fill="white" transform="translate(8.97253 8.97253)"/>
</clipPath>
</defs>
</svg>
